<mxfile host="app.diagrams.net" modified="2020-10-24T12:08:47.415Z" agent="5.0 (Windows NT 10.0; Win64; x64) AppleWebKit/537.36 (KHTML, like Gecko) Chrome/86.0.4240.75 Safari/537.36" etag="47Ptm648K0xgBVAJsQf3" version="13.8.1" type="github">
  <diagram id="C5RBs43oDa-KdzZeNtuy" name="Page-1">
    <mxGraphModel dx="1038" dy="491" grid="1" gridSize="10" guides="1" tooltips="1" connect="1" arrows="1" fold="1" page="1" pageScale="1" pageWidth="827" pageHeight="1169" math="0" shadow="0">
      <root>
        <mxCell id="WIyWlLk6GJQsqaUBKTNV-0" />
        <mxCell id="WIyWlLk6GJQsqaUBKTNV-1" parent="WIyWlLk6GJQsqaUBKTNV-0" />
        <mxCell id="7lPriUcwt5rydPs2uW5e-32" value="" style="group;fontSize=16;fontFamily=Comic Sans MS;" vertex="1" connectable="0" parent="WIyWlLk6GJQsqaUBKTNV-1">
          <mxGeometry x="242" y="11" width="293" height="461" as="geometry" />
        </mxCell>
        <mxCell id="7lPriUcwt5rydPs2uW5e-0" value="与进程相关的数据结构（例如，页表，task和mm结构，内核栈等）" style="rounded=0;whiteSpace=wrap;html=1;comic=1;fillColor=#cdeb8b;strokeColor=#36393d;fontFamily=Comic Sans MS;" vertex="1" parent="7lPriUcwt5rydPs2uW5e-32">
          <mxGeometry x="78" width="120" height="60" as="geometry" />
        </mxCell>
        <mxCell id="7lPriUcwt5rydPs2uW5e-25" value="" style="shape=curlyBracket;whiteSpace=wrap;html=1;rounded=1;comic=1;sketch=0;fontFamily=Comic Sans MS;" vertex="1" parent="7lPriUcwt5rydPs2uW5e-32">
          <mxGeometry x="54" width="20" height="60" as="geometry" />
        </mxCell>
        <mxCell id="7lPriUcwt5rydPs2uW5e-28" value="" style="shape=curlyBracket;whiteSpace=wrap;html=1;rounded=1;comic=1;sketch=0;rotation=-180;fillColor=#cdeb8b;strokeColor=#CDEB8B;strokeWidth=2;fontFamily=Comic Sans MS;" vertex="1" parent="7lPriUcwt5rydPs2uW5e-32">
          <mxGeometry x="204" width="20" height="140" as="geometry" />
        </mxCell>
        <mxCell id="7lPriUcwt5rydPs2uW5e-33" value="" style="group" vertex="1" connectable="0" parent="7lPriUcwt5rydPs2uW5e-32">
          <mxGeometry y="61" width="293" height="400" as="geometry" />
        </mxCell>
        <mxCell id="7lPriUcwt5rydPs2uW5e-1" value="物理内存" style="rounded=0;whiteSpace=wrap;html=1;comic=1;fillColor=#cdeb8b;strokeColor=#36393d;fontFamily=Comic Sans MS;" vertex="1" parent="7lPriUcwt5rydPs2uW5e-33">
          <mxGeometry x="78" width="120" height="40" as="geometry" />
        </mxCell>
        <mxCell id="7lPriUcwt5rydPs2uW5e-2" value="内核代码和数据" style="rounded=0;whiteSpace=wrap;html=1;comic=1;fillColor=#cdeb8b;strokeColor=#36393d;fontFamily=Comic Sans MS;" vertex="1" parent="7lPriUcwt5rydPs2uW5e-33">
          <mxGeometry x="78" y="40" width="120" height="40" as="geometry" />
        </mxCell>
        <mxCell id="7lPriUcwt5rydPs2uW5e-4" value="" style="rounded=0;whiteSpace=wrap;html=1;comic=1;fontFamily=Comic Sans MS;" vertex="1" parent="7lPriUcwt5rydPs2uW5e-33">
          <mxGeometry x="78" y="100" width="120" height="50" as="geometry" />
        </mxCell>
        <mxCell id="7lPriUcwt5rydPs2uW5e-5" value="共享库内存映射区域" style="rounded=0;whiteSpace=wrap;html=1;comic=1;fillColor=#cce5ff;strokeColor=#36393d;fontFamily=Comic Sans MS;" vertex="1" parent="7lPriUcwt5rydPs2uW5e-33">
          <mxGeometry x="78" y="150" width="120" height="30" as="geometry" />
        </mxCell>
        <mxCell id="7lPriUcwt5rydPs2uW5e-7" value="用户栈" style="rounded=0;whiteSpace=wrap;html=1;comic=1;fillColor=#cce5ff;strokeColor=#36393d;fontFamily=Comic Sans MS;" vertex="1" parent="7lPriUcwt5rydPs2uW5e-33">
          <mxGeometry x="78" y="80" width="120" height="20" as="geometry" />
        </mxCell>
        <mxCell id="7lPriUcwt5rydPs2uW5e-8" value="" style="rounded=0;whiteSpace=wrap;html=1;comic=1;fontFamily=Comic Sans MS;" vertex="1" parent="7lPriUcwt5rydPs2uW5e-33">
          <mxGeometry x="78" y="180" width="120" height="30" as="geometry" />
        </mxCell>
        <mxCell id="7lPriUcwt5rydPs2uW5e-13" value="堆" style="rounded=0;whiteSpace=wrap;html=1;comic=1;sketch=0;fillColor=#cce5ff;strokeColor=#36393d;fontFamily=Comic Sans MS;" vertex="1" parent="7lPriUcwt5rydPs2uW5e-33">
          <mxGeometry x="78" y="210" width="120" height="37" as="geometry" />
        </mxCell>
        <mxCell id="7lPriUcwt5rydPs2uW5e-14" value="未初始化的数据（.bss）" style="rounded=0;whiteSpace=wrap;html=1;comic=1;sketch=0;fillColor=#cce5ff;strokeColor=#36393d;fontFamily=Comic Sans MS;" vertex="1" parent="7lPriUcwt5rydPs2uW5e-33">
          <mxGeometry x="78" y="247" width="120" height="37" as="geometry" />
        </mxCell>
        <mxCell id="7lPriUcwt5rydPs2uW5e-15" value="已初始化的数（.data）" style="rounded=0;whiteSpace=wrap;html=1;comic=1;sketch=0;fillColor=#cce5ff;strokeColor=#36393d;fontFamily=Comic Sans MS;" vertex="1" parent="7lPriUcwt5rydPs2uW5e-33">
          <mxGeometry x="78" y="284" width="120" height="37" as="geometry" />
        </mxCell>
        <mxCell id="7lPriUcwt5rydPs2uW5e-16" value="代码（.text）" style="rounded=0;whiteSpace=wrap;html=1;comic=1;sketch=0;fillColor=#cce5ff;strokeColor=#36393d;fontFamily=Comic Sans MS;" vertex="1" parent="7lPriUcwt5rydPs2uW5e-33">
          <mxGeometry x="78" y="321" width="120" height="19" as="geometry" />
        </mxCell>
        <mxCell id="7lPriUcwt5rydPs2uW5e-17" value="" style="rounded=0;whiteSpace=wrap;html=1;comic=1;sketch=0;fillColor=#cce5ff;strokeColor=#36393d;fontFamily=Comic Sans MS;" vertex="1" parent="7lPriUcwt5rydPs2uW5e-33">
          <mxGeometry x="78" y="340" width="120" height="19" as="geometry" />
        </mxCell>
        <mxCell id="7lPriUcwt5rydPs2uW5e-18" value="" style="endArrow=classic;html=1;entryX=0;entryY=1;entryDx=0;entryDy=0;comic=1;fontFamily=Comic Sans MS;" edge="1" parent="7lPriUcwt5rydPs2uW5e-33" target="7lPriUcwt5rydPs2uW5e-16">
          <mxGeometry width="50" height="50" relative="1" as="geometry">
            <mxPoint x="48" y="340" as="sourcePoint" />
            <mxPoint x="52" y="340" as="targetPoint" />
          </mxGeometry>
        </mxCell>
        <mxCell id="7lPriUcwt5rydPs2uW5e-19" value="内核虚拟内存" style="text;html=1;strokeColor=none;fillColor=none;align=center;verticalAlign=middle;whiteSpace=wrap;rounded=0;comic=1;sketch=0;fontFamily=Comic Sans MS;" vertex="1" parent="7lPriUcwt5rydPs2uW5e-33">
          <mxGeometry x="238" width="50" height="20" as="geometry" />
        </mxCell>
        <mxCell id="7lPriUcwt5rydPs2uW5e-21" value="0x400000" style="text;html=1;strokeColor=none;fillColor=none;align=center;verticalAlign=middle;whiteSpace=wrap;rounded=0;comic=1;sketch=0;fontFamily=Comic Sans MS;" vertex="1" parent="7lPriUcwt5rydPs2uW5e-33">
          <mxGeometry y="330" width="40" height="20" as="geometry" />
        </mxCell>
        <mxCell id="7lPriUcwt5rydPs2uW5e-23" value="0" style="text;html=1;strokeColor=none;fillColor=none;align=center;verticalAlign=middle;whiteSpace=wrap;rounded=0;comic=1;sketch=0;fontFamily=Comic Sans MS;" vertex="1" parent="7lPriUcwt5rydPs2uW5e-33">
          <mxGeometry x="38" y="350" width="40" height="20" as="geometry" />
        </mxCell>
        <mxCell id="7lPriUcwt5rydPs2uW5e-26" value="" style="shape=curlyBracket;whiteSpace=wrap;html=1;rounded=1;comic=1;sketch=0;fontFamily=Comic Sans MS;" vertex="1" parent="7lPriUcwt5rydPs2uW5e-33">
          <mxGeometry x="54" width="20" height="80" as="geometry" />
        </mxCell>
        <mxCell id="7lPriUcwt5rydPs2uW5e-29" value="" style="shape=curlyBracket;whiteSpace=wrap;html=1;rounded=1;comic=1;sketch=0;rotation=-180;fillColor=#CCE5FF;strokeColor=#99CCFF;strokeWidth=2;fontFamily=Comic Sans MS;" vertex="1" parent="7lPriUcwt5rydPs2uW5e-33">
          <mxGeometry x="204" y="81" width="20" height="277" as="geometry" />
        </mxCell>
        <mxCell id="7lPriUcwt5rydPs2uW5e-31" value="进程虚拟内存" style="text;html=1;strokeColor=none;fillColor=none;align=center;verticalAlign=middle;whiteSpace=wrap;rounded=0;comic=1;sketch=0;fontFamily=Comic Sans MS;" vertex="1" parent="7lPriUcwt5rydPs2uW5e-33">
          <mxGeometry x="233" y="210" width="60" height="20" as="geometry" />
        </mxCell>
        <mxCell id="7lPriUcwt5rydPs2uW5e-35" value="每个进程都一样" style="text;html=1;strokeColor=none;fillColor=none;align=center;verticalAlign=middle;whiteSpace=wrap;rounded=0;comic=0;sketch=0;fontFamily=Comic Sans MS;fontSize=12;" vertex="1" parent="7lPriUcwt5rydPs2uW5e-33">
          <mxGeometry x="-3" y="34" width="50" height="20" as="geometry" />
        </mxCell>
        <mxCell id="7lPriUcwt5rydPs2uW5e-37" value="Linux 进程虚拟内存" style="text;html=1;strokeColor=none;fillColor=none;align=center;verticalAlign=middle;whiteSpace=wrap;rounded=0;comic=0;sketch=0;fontFamily=Comic Sans MS;fontSize=12;" vertex="1" parent="7lPriUcwt5rydPs2uW5e-33">
          <mxGeometry x="80" y="370" width="118" height="41" as="geometry" />
        </mxCell>
        <mxCell id="7lPriUcwt5rydPs2uW5e-34" value="对所有进程不相同" style="text;html=1;strokeColor=none;fillColor=none;align=center;verticalAlign=middle;whiteSpace=wrap;rounded=0;comic=0;sketch=0;fontFamily=Comic Sans MS;fontSize=12;" vertex="1" parent="7lPriUcwt5rydPs2uW5e-32">
          <mxGeometry x="-2" y="20" width="50" height="20" as="geometry" />
        </mxCell>
      </root>
    </mxGraphModel>
  </diagram>
</mxfile>
